<svg height="512" width="512" xmlns="http://www.w3.org/2000/svg"><path d="M79.787 24.507v28.848a28.97 28.97 0 006.914 18.782l34.056 39.99h38.782l34.056-39.99a28.967 28.967 0 006.914-18.782V24.507c0-9.393-7.614-17.007-17.007-17.007H96.794c-9.393 0-17.007 7.614-17.007 17.007z" fill="#e07f84"/><path d="M183.501 7.5h-54.856a6.514 6.514 0 016.514 6.514v39.341a28.97 28.97 0 01-6.914 18.782l-20.772 24.392 13.284 15.598h38.782l34.056-39.99a28.967 28.967 0 006.914-18.782V24.507c-.001-9.393-7.615-17.007-17.008-17.007z" fill="#dd636e"/><path d="M176.977 481.74l-27.335 19.69a16.244 16.244 0 01-18.989 0l-27.335-19.69a119.07 119.07 0 01-49.477-96.614v-68.211c0-6.63 4.836-12.269 11.389-13.279l74.917-11.548 74.917 11.548a13.436 13.436 0 0111.389 13.279v68.211a119.065 119.065 0 01-49.476 96.614z" fill="#4a80aa"/><path d="M215.065 303.636l-54.751-8.439c.509 1.42.791 2.943.791 4.526v68.211a119.068 119.068 0 01-49.477 96.614l-15.758 11.35a119.41 119.41 0 007.448 5.843l27.335 19.69a16.244 16.244 0 0018.989 0l27.335-19.69a119.07 119.07 0 0049.477-96.614v-68.211c0-6.631-4.837-12.27-11.389-13.28z" fill="#407093"/><path d="M120.757 267.055V112.126h38.782v154.929l-19.391 15.383z" fill="#f2f9ff"/><path d="M145.044 399.28c-1.455 4.861-8.339 4.861-9.794 0a272.619 272.619 0 01-10.473-55.095l-4.021-77.839h38.782l-4.021 77.839a272.55 272.55 0 01-10.473 55.095z" fill="#365e7d"/><g><path d="M352.74 271.476V111.145h38.418v160.331l-19.209 3.418z" fill="#f2f9ff"/><path d="M364.384 499.04a187.667 187.667 0 01-9.648-59.453l-1.858-91.617c-.084-4.125-3.781-7.231-7.858-6.603l-12.642 1.949a14.409 14.409 0 00-12.214 14.24v81.988c0 20.236-3.29 40.337-9.74 59.518-2.443 7.263-12.725 7.235-15.129-.041l-.133-.403a186.703 186.703 0 01-9.423-58.565v-96.811c0-15.862 11.571-29.353 27.248-31.769l30.703-4.733a9.623 9.623 0 008.155-9.706l.895-25.559h38.418l.895 25.559a9.623 9.623 0 008.155 9.706l30.704 4.733c15.677 2.416 27.248 15.907 27.248 31.769v96.555c0 20.069-3.236 40.006-9.582 59.044l-.067.2c-2.423 7.27-12.706 7.269-15.129 0l-.067-.202a186.72 186.72 0 01-9.58-59.04v-82.244a14.41 14.41 0 00-12.214-14.241l-12.642-1.949c-4.077-.628-7.775 2.478-7.858 6.603l-1.859 91.659a187.594 187.594 0 01-9.647 59.412c-2.425 7.272-12.708 7.272-15.131.001z" fill="#4a80aa"/><path d="M430.911 311.473l-30.704-4.733a9.623 9.623 0 01-8.155-9.706l-.895-25.559H352.74l-.895 25.559a9.623 9.623 0 01-8.155 9.706l-4.416.681 26.288 4.052c15.677 2.416 27.248 15.907 27.248 31.769v.268a6.796 6.796 0 016.068-2.143l12.642 1.949a14.409 14.409 0 0112.214 14.24V439.8a186.72 186.72 0 009.58 59.04l.067.201c2.423 7.27 12.706 7.27 15.129 0l.067-.2a186.724 186.724 0 009.582-59.045v-96.555c0-15.861-11.571-29.352-27.248-31.768z" fill="#407093"/><path d="M311.588 24.507v28.848a28.97 28.97 0 006.914 18.782l34.056 39.99h38.782l34.056-39.99a28.967 28.967 0 006.914-18.782V24.507c0-9.393-7.614-17.007-17.007-17.007h-86.707c-9.394 0-17.008 7.614-17.008 17.007z" fill="#e07f84"/><path d="M415.302 7.5h-54.856a6.513 6.513 0 016.514 6.514v39.341a28.97 28.97 0 01-6.914 18.782l-20.772 24.392 13.284 15.598h38.782l34.056-39.99a28.967 28.967 0 006.914-18.782V24.507c-.001-9.393-7.615-17.007-17.008-17.007z" fill="#dd636e"/></g><g><path d="M171.653 42.063a7.5 7.5 0 00-7.5-7.5h-48.012a7.5 7.5 0 000 15h48.012a7.5 7.5 0 007.5-7.5zM403.454 42.063a7.5 7.5 0 00-7.5-7.5h-48.011a7.5 7.5 0 000 15h48.011a7.5 7.5 0 007.5-7.5z"/><path d="M432.053 304.061l-30.703-4.733a2.129 2.129 0 01-1.799-2.141 7.172 7.172 0 00-.003-.415l-.891-25.434v-86.425a7.5 7.5 0 00-15 0v79.062h-23.418V119.626h23.418v30.216a7.5 7.5 0 0015 0v-34.741l32.448-38.103a36.501 36.501 0 008.704-23.644V24.507C439.809 10.994 428.815 0 415.302 0h-86.707c-13.513 0-24.507 10.994-24.507 24.507v28.848a36.497 36.497 0 008.704 23.644l32.448 38.103V271.34l-.89 25.433a7.144 7.144 0 00-.003.414 2.13 2.13 0 01-1.8 2.142l-30.703 4.733c-19.472 3.001-33.605 19.48-33.605 39.182v96.811c0 34.493 9.314 58.787 9.934 61.32 2.125 6.433 7.876 10.601 14.651 10.62h.044c6.756 0 12.509-4.134 14.664-10.541a193.826 193.826 0 0010.131-61.908v-81.988a6.871 6.871 0 015.856-6.828l11.875-1.83 1.841 90.766a195.158 195.158 0 0010.033 61.748v.001c2.143 6.427 7.905 10.58 14.68 10.58s12.537-4.153 14.68-10.581a195.021 195.021 0 0010.032-61.707l1.842-90.807 11.875 1.83a6.87 6.87 0 015.856 6.828V439.8c0 34.581 9.264 58.497 10.032 61.613 2.143 6.428 7.905 10.581 14.68 10.581 11.679 0 14.672-10.68 14.746-10.78a193.873 193.873 0 009.967-61.417v-96.555c.001-19.702-14.133-36.18-33.605-39.181zM319.088 53.354V24.507c0-5.242 4.265-9.507 9.507-9.507h86.707c5.242 0 9.507 4.265 9.507 9.507v28.848c0 5.096-1.82 10.039-5.124 13.919l-31.81 37.354H356.02l-31.81-37.354a21.495 21.495 0 01-5.122-13.92zm131.571 386.443c0 19.298-3.094 38.366-9.199 56.678l-.065.194c-.069.209-.108.324-.449.324-.342 0-.38-.115-.446-.314l-.07-.212a178.867 178.867 0 01-9.196-56.668v-82.244c0-10.888-7.81-19.994-18.572-21.653-12.784-1.918-12.924-2.115-14.825-2.115-7.776 0-14.159 6.221-14.317 14.03l-1.859 91.659-.001.152c0 19.41-3.116 38.601-9.263 57.04a.468.468 0 01-.899 0 180.199 180.199 0 01-9.263-57.081l-.001-.152-1.858-91.618c-.175-8.641-7.93-15.185-16.499-13.863l-12.642 1.948c-10.761 1.659-18.571 10.765-18.571 21.653v81.988c0 19.461-3.145 38.682-9.349 57.126a.472.472 0 01-.897.002c-.924-3.772-9.179-25.107-9.179-56.619v-96.811c0-12.247 8.786-22.491 20.89-24.357l30.703-4.733c8.368-1.29 14.569-8.59 14.514-17.033l.635-18.144h23.934l.636 18.143c-.055 8.444 6.146 15.744 14.514 17.034l30.703 4.733c12.105 1.866 20.89 12.109 20.89 24.357v96.556zM216.207 296.223l-50.301-7.753c.251-4.888 1.106-21.26 1.123-21.932.002-.064.01-.127.01-.192v-151.46l32.266-37.888a36.497 36.497 0 008.704-23.644V24.507C208.008 10.994 197.014 0 183.501 0H96.794C83.281 0 72.287 10.994 72.287 24.507v28.848a36.497 36.497 0 008.704 23.644l32.266 37.889c.002 29.417-.005 151.068.01 151.651.002.065-.003.13 0 .195l1.123 21.737-50.301 7.753c-10.283 1.585-17.747 10.287-17.747 20.692v24.117a7.5 7.5 0 0015 0v-24.117a5.904 5.904 0 015.032-5.867l48.794-7.521 2.12 41.045c.004.083.01.166.017.249a280.66 280.66 0 0010.762 56.611c3.586 11.975 20.581 11.968 24.163 0a280.715 280.715 0 0010.762-56.611c.007-.083.013-.166.017-.249l2.12-41.045 48.794 7.521a5.904 5.904 0 015.032 5.867v68.211c0 35.776-17.331 69.619-46.36 90.529l-27.336 19.689a8.733 8.733 0 01-10.222 0l-27.335-19.689c-29.029-20.91-46.36-54.753-46.36-90.529v-9.023a7.5 7.5 0 00-15 0v9.023c0 40.586 19.661 78.979 52.594 102.7l27.334 19.689a23.714 23.714 0 0027.756 0l27.336-19.689c32.932-23.721 52.593-62.114 52.593-102.7v-68.211c-.001-10.406-7.465-19.108-17.748-20.693zm-87.951-176.597h23.782v139.22h-23.782zM87.287 53.354V24.507c0-5.242 4.265-9.507 9.507-9.507h86.707c5.242 0 9.507 4.265 9.507 9.507v28.848a21.488 21.488 0 01-5.123 13.919l-31.81 37.354H124.22L92.41 67.274a21.498 21.498 0 01-5.123-13.92zm60.748 290.318a265.769 265.769 0 01-7.887 45.345 265.786 265.786 0 01-7.887-45.345l-2.541-49.182-.002-.037-1.064-20.606h22.988l-1.064 20.606-.002.037z"/></g></svg>