<svg height="512" viewBox="0 0 64 64" width="512" xmlns="http://www.w3.org/2000/svg"><path d="M19.857 50.485l-1.715 1.029a16.764 16.764 0 009.073 7.277l.468.156.633-1.896-.469-.156a14.77 14.77 0 01-7.99-6.41zm8.194 1.831a14.47 14.47 0 003.478 5.627l.764.764 1.414-1.414-.764-.764a12.46 12.46 0 01-2.994-4.846z"/><path d="M62.385 31.418l-.758-3.032A21.035 21.035 0 0161 23.292v-1.726a2.569 2.569 0 00-3.886-2.2l-1.567.939a20.936 20.936 0 01-6.249 2.492l-1.491.331a22.1 22.1 0 00-14.119 10.118 27.601 27.601 0 00-13.875-8.12l-1.361-.326A15.144 15.144 0 0117 24.373V15h3c6.065 0 11-4.935 11-11V1h-5c-4.867 0-9 3.181-10.445 7.571C13.659 5.249 10.09 3 6 3H1v3c0 6.065 4.935 11 11 11h3v6.486a15.156 15.156 0 01-2.048-1.271l-.993-.745c-.948-.712-2.404-.557-3.179.339a2.346 2.346 0 00-.55 1.87l.039.27a25.655 25.655 0 01-.511 9.899A25.347 25.347 0 007 40c0 12.683 10.318 23 23 23 4.264 0 7.961-2.444 9.786-6h2.626C53.764 57 63 47.764 63 36.411c0-1.682-.207-3.362-.615-4.993zM26 3h3v1c0 4.963-4.038 9-9 9h-2.277l.127-.223a11.768 11.768 0 018.314-5.791l-.329-1.973a13.74 13.74 0 00-8.656 5.197C18.012 6.102 21.65 3 26 3zM3 6V5h3c4.35 0 7.988 3.102 8.82 7.211a13.74 13.74 0 00-8.656-5.197l-.329 1.972a11.768 11.768 0 018.314 5.791l.128.223H12c-4.962 0-9-4.037-9-9zm35.65 48.457a17.779 17.779 0 00-4.896-9.118l-.05-.05-1.36 1.468a15.785 15.785 0 014.641 10.909A8.988 8.988 0 0130 61C18.42 61 9 51.579 9 40c0-1.91.235-3.816.698-5.668a27.646 27.646 0 00.55-10.668l-.039-.27c-.019-.136.043-.23.082-.275s.123-.119.26-.119c.075 0 .147.024.208.069l.994.745a16.97 16.97 0 003.248 1.901V33.5a4.02 4.02 0 01-1.6 3.2 6.029 6.029 0 00-2.4 4.8V43h2v-1.5a4.02 4.02 0 011.6-3.2 5.85 5.85 0 00.846-.787 10.846 10.846 0 005.312 7.786 7.27 7.27 0 013.293 4.018l1.897-.633a9.272 9.272 0 00-4.198-5.121 8.842 8.842 0 01-4.364-6.538 7.302 7.302 0 004.33 2.442 4.241 4.241 0 013.334 2.85l1.897-.633a6.236 6.236 0 00-1.921-2.817l1.46-.584a3.985 3.985 0 014.254.873l.552.552 1.414-1.414-.551-.552c-1.659-1.66-4.227-2.189-6.411-1.316l-3.056 1.222a6.33 6.33 0 00-.643-.153 5.313 5.313 0 01-3.69-2.513L17 32.723v-6.268c.327.1.65.209.985.29l1.362.327A25.558 25.558 0 0139 52c0 .853-.127 1.675-.35 2.457zm3.762.543h-1.838c.271-.955.426-1.959.426-3a27.582 27.582 0 00-5.934-17.146 20.105 20.105 0 0113.174-9.772l1.491-.331a22.968 22.968 0 006.844-2.73l1.567-.939c.358-.214.858.07.858.484v1.726c0 1.878.231 3.755.687 5.578l.758 3.033c.368 1.472.555 2.989.555 4.508C61 46.661 52.661 55 42.412 55z"/><path d="M42.285 42.293l9.998-9.998 1.414 1.414-9.998 9.998zm14.646-7.96a24.22 24.22 0 01-11.445 16.81l1.029 1.715a26.217 26.217 0 0012.389-18.195l.083-.497-1.973-.33zm-6.073-6.323a22.355 22.355 0 00-12.565 6.283l1.414 1.414a20.34 20.34 0 0111.435-5.717z"/></svg>